<?xml version="1.0" encoding="UTF-8" standalone="no"?>
<svg width="50px" height="50px" viewBox="0 0 50 50" version="1.1" xmlns="http://www.w3.org/2000/svg" xmlns:xlink="http://www.w3.org/1999/xlink" xmlns:sketch="http://www.bohemiancoding.com/sketch/ns">
    <!-- Generator: Sketch 3.3.3 (12072) - http://www.bohemiancoding.com/sketch -->
    <title>Slice 1</title>
    <desc>Created with Sketch.</desc>
    <defs></defs>
    <g id="Page-1" stroke="none" stroke-width="1" fill="none" fill-rule="evenodd" sketch:type="MSPage">
        <g id="instagram" sketch:type="MSLayerGroup">
            <g id="Page-1">
                <g id="Instagram-icon-black">
                    <g id="Group-3">
                        <g id="mask-2" fill="#FFFFFF" sketch:type="MSShapeGroup">
                            <path d="M0,0.0785244119 L49.6246006,0.0785244119 L49.6246006,49.6965994 L0,49.6965994" id="path-1"></path>
                        </g>
                        <g id="Clip-2"></g>
                    </g>
                </g>
                <path d="M24.3388672,3.94690543 C18.8151476,3.94690543 18.1225318,3.97017389 15.9532155,4.06931004 C13.7882676,4.16817873 12.309784,4.51194578 11.0162,5.01466943 C9.67866442,5.53442097 8.54439362,6.22988954 7.41368886,7.36059429 C6.28298411,8.49129905 5.58751554,9.62565901 5.06785316,10.9631054 C4.56486205,12.2568677 4.22109499,13.7353513 4.12240461,15.9002101 C4.02335762,18.0695264 4,18.762053 4,24.2857726 C4,29.8096705 4.02335762,30.5021971 4.12240461,32.6715134 C4.22109499,34.8363722 4.56486205,36.3148558 5.06785316,37.6086181 C5.58751554,38.9460645 6.28298411,40.0804245 7.41368886,41.2111292 C8.54439362,42.341834 9.67866442,43.0373026 11.0162,43.5570541 C12.309784,44.0597778 13.7882676,44.4035448 15.9532155,44.5024135 C18.1225318,44.6013713 18.8151476,44.6248181 24.3388672,44.6248181 C29.8625868,44.6248181 30.5552917,44.6013713 32.724608,44.5024135 C34.8894668,44.4035448 36.3679504,44.0597778 37.6616235,43.5570541 C38.9991591,43.0373026 40.1333408,42.341834 41.2640455,41.2111292 C42.3947503,40.0804245 43.0902188,38.9460645 43.6099704,37.6086181 C44.1128723,36.3148558 44.4566394,34.8363722 44.5554189,32.6715134 C44.6544659,30.5021971 44.6777344,29.8096705 44.6777344,24.2857726 C44.6777344,18.762053 44.6544659,18.0695264 44.5554189,15.9002101 C44.4566394,13.7353513 44.1128723,12.2568677 43.6099704,10.9631054 C43.0902188,9.62565901 42.3947503,8.49129905 41.2640455,7.36059429 C40.1333408,6.22988954 38.9991591,5.53442097 37.6616235,5.01466943 C36.3679504,4.51194578 34.8894668,4.16817873 32.724608,4.06931004 C30.5552917,3.97017389 29.8625868,3.94690543 24.3388672,3.94690543 M24.3388672,7.61155494 C29.7696021,7.61155494 30.4127389,7.63223802 32.5575386,7.73003689 C34.5405289,7.82052537 35.6174755,8.15198956 36.3341621,8.43040878 C37.2836224,8.79940562 37.9611716,9.24016919 38.6727765,9.95186327 C39.3846489,10.6636465 39.8254125,11.3411065 40.194231,12.2904777 C40.4726502,13.0071643 40.8041144,14.0842 40.8946029,16.0671012 C40.9924018,18.2119009 41.013174,18.8550377 41.013174,24.2857726 C41.013174,29.7166858 40.9924018,30.3598226 40.8946029,32.5044441 C40.8041144,34.4875235 40.4726502,35.5645593 40.194231,36.2812458 C39.8254125,37.2305279 39.3846489,37.908077 38.6727765,38.6198603 C37.9611716,39.3315543 37.2836224,39.7723179 36.3341621,40.1412256 C35.6174755,40.419734 34.5405289,40.7511982 32.5575386,40.8415083 C30.4130955,40.9394855 29.7700479,40.9600794 24.3388672,40.9600794 C18.9076865,40.9600794 18.2646389,40.9394855 16.1201957,40.8415083 C14.1372946,40.7511982 13.0602589,40.419734 12.3435723,40.1412256 C11.3942011,39.7723179 10.7166519,39.3315543 10.0049578,38.6198603 C9.29335291,37.908077 8.85258934,37.2305279 8.4835925,36.2812458 C8.20508413,35.5645593 7.87370909,34.4875235 7.78313146,32.5044441 C7.68542174,30.3598226 7.66464951,29.7166858 7.66464951,24.2857726 C7.66464951,18.8550377 7.68542174,18.2119009 7.78313146,16.0671012 C7.87370909,14.0842 8.20508413,13.0071643 8.4835925,12.2904777 C8.85258934,11.3411065 9.29335291,10.6636465 10.0049578,9.95186327 C10.7166519,9.24016919 11.3942011,8.79940562 12.3435723,8.43040878 C13.0602589,8.15198956 14.1372946,7.82052537 16.1201957,7.73003689 C18.2649955,7.63223802 18.9081323,7.61155494 24.3388672,7.61155494" id="Fill-1" fill="#000000" sketch:type="MSShapeGroup"></path>
                <path d="M24.2807508,31.0073381 C20.5364893,31.0073381 17.501069,27.9720069 17.501069,24.2276563 C17.501069,20.4833947 20.5364893,17.4480636 24.2807508,17.4480636 C28.0251015,17.4480636 31.0604327,20.4833947 31.0604327,24.2276563 C31.0604327,27.9720069 28.0251015,31.0073381 24.2807508,31.0073381 M24.2807508,13.7834141 C18.5125786,13.7834141 13.8365086,18.4595732 13.8365086,24.2276563 C13.8365086,29.9960068 18.5125786,34.6719876 24.2807508,34.6719876 C30.0489231,34.6719876 34.724993,29.9960068 34.724993,24.2276563 C34.724993,18.4595732 30.0489231,13.7834141 24.2807508,13.7834141" id="Fill-4" fill="#000000" sketch:type="MSShapeGroup"></path>
                <path d="M37.5712021,13.7649795 C37.5712021,15.1128566 36.4784757,16.2056721 35.1305095,16.2056721 C33.7826324,16.2056721 32.6898169,15.1128566 32.6898169,13.7649795 C32.6898169,12.4170133 33.7826324,11.3242869 35.1305095,11.3242869 C36.4784757,11.3242869 37.5712021,12.4170133 37.5712021,13.7649795" id="Fill-5" fill="#000000" sketch:type="MSShapeGroup"></path>
            </g>
        </g>
    </g>
</svg>